<?xml version="1.0" ?><svg viewBox="0 0 64 64" xmlns="http://www.w3.org/2000/svg"><defs><style>.cls-1,.cls-4{fill:none;}.cls-1,.cls-2,.cls-3{stroke:#434a54;stroke-linecap:round;stroke-linejoin:round;stroke-width:2px;}.cls-2{fill:#ecf0f1;}.cls-3{fill:#f1c40f;}</style></defs><title/><g data-name="katman 2" id="katman_2"><g id="icons"><path class="cls-1" d="M23,51V46.44"/><path class="cls-1" d="M43.87,40.83A7.26,7.26,0,0,0,41,46.44"/><path class="cls-2" d="M35,54.46V57a2,2,0,0,1-2,2H31a2,2,0,0,1-2-2V54.46A4,4,0,0,0,31,55h2A4,4,0,0,0,35,54.46Z"/><path class="cls-2" d="M37,47v4a4,4,0,0,1-4,4H31a4,4,0,0,1-4-4V47Z"/><path class="cls-3" d="M47,25.82a15,15,0,0,1-5.63,11.89A11.24,11.24,0,0,0,37,46.44V47H27v-.56a10.65,10.65,0,0,0-4.08-8.5A15,15,0,1,1,47,25.82Z"/><line class="cls-1" x1="30" x2="30" y1="47" y2="35"/><line class="cls-1" x1="34" x2="34" y1="47" y2="35"/><line class="cls-1" x1="30" x2="24" y1="35" y2="29"/><line class="cls-1" x1="34" x2="40" y1="35" y2="29"/><path class="cls-1" d="M26,15.61A11.94,11.94,0,0,1,32,14"/><path class="cls-1" d="M20,26a12,12,0,0,1,2.57-7.42"/><line class="cls-1" x1="32" x2="32" y1="8" y2="4"/><line class="cls-1" x1="19.27" x2="16.44" y1="13.27" y2="10.44"/><line class="cls-1" x1="14" x2="10" y1="26" y2="26"/><line class="cls-1" x1="50" x2="54" y1="26" y2="26"/><line class="cls-1" x1="44.73" x2="47.56" y1="13.27" y2="10.44"/><line class="cls-1" x1="27" x2="37" y1="50" y2="50"/><rect class="cls-4" height="64" width="64"/></g></g></svg>